<?xml version="1.0" encoding="UTF-8"?>
<!DOCTYPE svg PUBLIC "-//W3C//DTD SVG 1.1//EN" "http://www.w3.org/Graphics/SVG/1.1/DTD/svg11.dtd">
<!-- Creator: CorelDRAW -->
<svg xmlns="http://www.w3.org/2000/svg" xml:space="preserve" width="215.9mm" height="279.4mm" style="shape-rendering:geometricPrecision; text-rendering:geometricPrecision; image-rendering:optimizeQuality; fill-rule:evenodd; clip-rule:evenodd"
viewBox="0 0 215.9 279.4">
 <defs>
  <style type="text/css">
   <![CDATA[
    .fil3 {fill:navy}
    .fil4 {fill:#334C9E}
    .fil5 {fill:#592600}
    .fil6 {fill:#5C70B0}
    .fil0 {fill:#99A6CF}
    .fil2 {fill:#EDF2FF}
    .fil1 {fill:#FF0033}
   ]]>
  </style>
 </defs>
 <g id="Layer_x0020_1">
  <metadata id="CorelCorpID_0Corel-Layer"/>
  <g id="_141493816">
   <polygon id="_141272352" class="fil0" points="207.805,185.755 207.71,228.787 158.117,228.744 158.117,148.906 179.332,163.422 208.922,183.521 207.805,185.755 "/>
   <polygon id="_141272280" class="fil1" points="159.792,154.49 207.805,185.755 214.506,185.755 159.233,146.116 159.792,154.49 "/>
   <polygon id="_141272208" class="fil1" points="34.7319,51.2041 34.7319,85.8179 53.1556,67.9526 53.1556,51.2041 34.7319,51.2041 "/>
   <polygon id="_141272136" class="fil0" points="19.0988,108.15 19.0988,228.744 163.141,228.744 163.141,108.709 92.7948,34.4542 19.0988,108.15 "/>
   <polygon id="_141271992" class="fil2" points="35.8487,115.409 58.738,115.409 58.738,140.532 35.8487,140.532 35.8487,115.409 "/>
   <polygon id="_141271920" class="fil3" points="43.6646,118.758 43.6646,138.857 44.223,138.857 44.223,118.2 43.6646,118.758 "/>
   <polygon id="_141271848" class="fil3" points="49.8054,118.758 49.8054,138.857 50.3637,138.857 50.3637,118.2 49.8054,118.758 "/>
   <polygon id="_141271776" class="fil3" points="37.5225,125.458 57.6213,125.458 57.6213,124.9 36.9641,124.9 37.5225,125.458 "/>
   <polygon id="_141271704" class="fil3" points="36.9641,132.267 57.6213,132.267 57.6213,131.49 36.9641,131.49 36.9641,132.267 "/>
   <polygon id="_141271632" class="fil1" points="35.8487,115.409 58.738,115.409 58.738,140.532 35.8487,140.532 35.8487,138.298 55.3891,138.298 55.3891,118.758 35.8487,118.758 35.8487,115.409 "/>
   <polygon id="_141271560" class="fil1" points="35.8487,115.409 35.8487,140.532 38.6392,138.857 38.6392,118.758 35.8487,115.409 "/>
   <polygon id="_141271488" class="fil4" points="58.738,115.409 58.738,140.532 67.1136,140.532 67.1136,115.409 58.738,115.409 "/>
   <polygon id="_141271416" class="fil4" points="27.4731,115.409 27.4731,140.532 35.8487,140.532 35.8487,115.409 27.4731,115.409 "/>
   <polygon id="_141271344" class="fil2" points="82.187,115.409 104.519,115.409 104.519,140.532 82.187,140.532 82.187,115.409 "/>
   <polygon id="_141271272" class="fil3" points="89.4445,118.758 89.4445,138.857 90.0029,138.857 90.0029,118.2 89.4445,118.758 "/>
   <polygon id="_141271200" class="fil3" points="95.5866,118.758 95.5866,138.857 96.145,138.857 96.145,118.2 95.5866,118.758 "/>
   <polygon id="_141271128" class="fil3" points="82.7454,125.458 103.403,125.458 103.403,124.9 82.7454,124.9 82.7454,125.458 "/>
   <polygon id="_141271056" class="fil3" points="82.7454,132.157 103.403,132.157 103.403,131.6 82.7454,131.6 82.7454,132.157 "/>
   <polygon id="_141270984" class="fil1" points="82.187,115.409 104.519,115.409 104.519,140.532 82.187,140.532 82.187,138.298 102.286,138.298 102.286,118.758 81.0703,118.758 82.187,115.409 "/>
   <polygon id="_141270912" class="fil1" points="82.187,115.409 82.187,140.532 84.4205,138.298 84.4205,118.758 82.187,115.409 "/>
   <polygon id="_141270840" class="fil4" points="104.519,115.409 104.519,140.532 113.452,140.532 113.452,115.409 104.519,115.409 "/>
   <polygon id="_141270768" class="fil4" points="73.2544,115.409 73.2544,140.532 82.187,140.532 82.187,115.409 73.2544,115.409 "/>
   <polygon id="_141270696" class="fil2" points="124.06,115.966 146.95,115.966 146.95,141.09 125.176,141.09 124.06,115.966 "/>
   <polygon id="_141270624" class="fil3" points="132.412,118.758 132.412,139.415 133.014,139.415 133.014,118.758 132.412,118.758 "/>
   <polygon id="_141270552" class="fil3" points="139.134,118.758 139.134,139.415 139.134,139.415 139.134,118.2 139.134,118.758 "/>
   <polygon id="_141495160" class="fil3" points="138.759,118.897 138.759,139.554 139.383,139.554 139.383,118.897 138.759,118.897 "/>
   <polygon id="_141270480" class="fil3" points="125.735,125.458 145.275,125.458 145.275,124.9 125.176,124.9 125.735,125.458 "/>
   <polygon id="_141270408" class="fil3" points="125.735,132.473 145.275,132.473 145.275,131.842 125.176,131.842 125.735,132.473 "/>
   <polygon id="_141270336" class="fil1" points="124.06,115.966 146.95,115.966 146.95,141.09 125.176,141.09 125.176,138.857 144.717,138.857 144.717,119.316 124.06,119.316 124.06,115.966 "/>
   <polygon id="_141270264" class="fil1" points="124.06,115.966 125.176,141.09 127.968,138.857 127.968,118.758 124.06,115.966 "/>
   <polygon id="_141270192" class="fil4" points="146.95,115.966 146.95,141.09 155.325,141.09 155.325,115.966 146.95,115.966 "/>
   <polygon id="_141270120" class="fil4" points="116.244,115.966 116.244,141.09 125.176,141.09 125.176,115.966 116.244,115.966 "/>
   <polygon id="_141270048" class="fil2" points="35.8487,178.497 58.738,178.497 58.738,203.62 35.8487,203.62 35.8487,178.497 "/>
   <polygon id="_141269976" class="fil3" points="43.6646,180.729 43.6646,201.387 44.223,201.387 44.223,180.729 43.6646,180.729 "/>
   <polygon id="_141269904" class="fil3" points="50.3637,180.729 50.3637,201.387 50.9221,201.387 50.9221,180.729 50.3637,180.729 "/>
   <polygon id="_141269832" class="fil3" points="37.5225,188.062 57.6213,188.062 57.6213,187.356 36.9641,187.356 37.5225,188.062 "/>
   <polygon id="_141269760" class="fil3" points="37.5225,194.687 57.6213,194.687 57.6213,194.129 36.9641,194.129 37.5225,194.687 "/>
   <polygon id="_141269136" class="fil1" points="35.8487,178.497 58.738,178.497 58.738,203.62 35.8487,203.62 35.8487,200.828 55.9475,200.828 55.9475,181.288 35.8487,181.288 35.8487,178.497 "/>
   <polygon id="_141269184" class="fil1" points="35.8487,178.497 35.8487,203.62 39.1976,200.828 39.1976,180.729 35.8487,178.497 "/>
   <polygon id="_141269544" class="fil4" points="58.738,178.497 58.738,203.62 67.672,203.62 67.672,178.497 58.738,178.497 "/>
   <polygon id="_141269616" class="fil4" points="27.4731,178.497 27.4731,203.62 35.8487,203.62 35.8487,178.497 27.4731,178.497 "/>
   <polygon id="_141269592" class="fil2" points="124.317,178.755 147.208,178.755 147.208,203.62 125.434,203.62 124.317,178.755 "/>
   <polygon id="_141268296" class="fil3" points="133.124,181.288 133.124,201.387 133.682,201.387 133.682,180.729 133.124,181.288 "/>
   <polygon id="_141265200" class="fil3" points="139.274,181.231 139.274,201.674 140.023,201.674 140.023,180.663 139.274,181.231 "/>
   <polygon id="_141265272" class="fil3" points="125.735,187.967 145.275,187.967 145.275,187.451 125.176,187.451 125.735,187.967 "/>
   <polygon id="_141265344" class="fil3" points="125.735,194.954 145.275,194.954 145.275,194.421 125.176,194.421 125.735,194.954 "/>
   <polygon id="_141265416" class="fil1" points="124.06,178.497 146.95,178.497 146.95,203.62 124.06,203.62 124.06,200.712 144.717,200.828 144.717,181.288 124.06,181.288 124.06,178.497 "/>
   <polygon id="_141265488" class="fil1" points="124.06,178.497 124.06,203.62 127.852,200.828 127.968,180.729 124.06,178.497 "/>
   <polygon id="_141265560" class="fil4" points="146.95,178.497 146.95,203.62 155.325,203.62 155.325,178.497 146.95,178.497 "/>
   <polygon id="_141265632" class="fil4" points="115.685,178.497 115.685,203.62 124.06,203.62 124.06,178.497 115.685,178.497 "/>
   <polygon id="_141265704" class="fil4" points="75.4879,228.744 75.4879,177.939 109.266,177.939 109.701,228.744 90.2041,228.744 "/>
   <polygon id="_141265776" class="fil5" points="77.7214,200.828 77.163,203.62 79.3951,203.62 79.3951,200.27 77.7214,200.828 "/>
   <polygon id="_141265848" class="fil2" points="84.4205,64.6024 101.169,64.6024 101.169,83.5857 84.4205,83.5857 84.4205,64.6024 "/>
   <polygon id="_141265920" class="fil3" points="90.0029,67.3942 90.0029,82.469 90.5613,82.469 90.5613,66.2775 90.0029,67.3942 "/>
   <polygon id="_141265992" class="fil3" points="95.0283,66.2775 95.0283,82.469 95.5866,82.469 95.5866,66.2775 95.0283,66.2775 "/>
   <polygon id="_141266064" class="fil3" points="84.9789,72.4196 100.611,72.4196 100.611,71.3028 84.9789,71.3028 84.9789,72.4196 "/>
   <polygon id="_141266136" class="fil3" points="84.9789,77.4436 100.611,77.4436 100.611,76.3269 84.9789,76.3269 84.9789,77.4436 "/>
   <polygon id="_141266208" class="fil1" points="84.4205,64.6024 86.654,60.6951 91.1197,58.4616 93.3531,57.9032 96.145,59.0199 98.3785,60.6951 101.169,64.6024 101.169,83.5857 84.4205,83.5857 84.9789,81.3522 99.4953,81.3522 99.4953,67.3942 95.5866,67.3942 91.678,67.3942 87.7707,67.3942 84.4205,67.3942 84.4205,64.6024 "/>
   <polygon id="_141266280" class="fil1" points="84.4205,64.6024 84.4205,83.5857 87.2124,81.3522 87.2124,66.2775 84.4205,64.6024 "/>
   <polygon id="_141266352" class="fil4" points="101.169,64.6024 101.169,83.5857 107.87,83.5857 107.87,64.6024 101.169,64.6024 "/>
   <polygon id="_141266424" class="fil4" points="78.2797,64.6024 78.2797,83.5857 84.4205,83.5857 84.4205,64.6024 78.2797,64.6024 "/>
   <polygon id="_141266496" class="fil4" points="19.0988,108.15 4.5838,109.267 92.7948,28.8718 173.748,108.709 163.141,108.709 92.7948,38.3628 19.0988,108.15 "/>
   <polygon id="_141266784" class="fil6" points="189.94,177.939 205.013,188.547 205.013,227 183.181,226.377 192.657,216.089 184.453,211.372 198.314,204.737 189.54,201.757 198.872,199.154 187.987,191.211 194.407,186.313 189.94,177.939 "/>
  </g>
 </g>
</svg>
